<svg xmlns="http://www.w3.org/2000/svg" xmlns:xlink="http://www.w3.org/1999/xlink" viewBox="0,0,256,256" width="32px" height="32px"><g fill="#f9f9f9" fill-rule="nonzero" stroke="none" stroke-width="1" stroke-linecap="butt" stroke-linejoin="miter" stroke-miterlimit="10" stroke-dasharray="" stroke-dashoffset="0" font-family="none" font-weight="none" font-size="none" text-anchor="none" style="mix-blend-mode: normal"><g transform="scale(8,8)"><path d="M3.25586,9.15039c-1.42,0 -2.05078,0.54977 -2.05078,2.25977c0,1.13 0.16016,1.76047 0.16016,2.73047c0,0.55 -0.33828,1.12969 -1.36328,1.17969v1.36524c1.025,0.025 1.36328,0.60625 1.36328,1.15625c0,0.97 -0.16016,1.54969 -0.16016,2.67969c0,1.71 0.63039,2.25977 2.02539,2.25977h1.02539v-1.21094h-0.31445c-0.655,0 -0.86523,-0.26391 -0.86523,-1.12891c0,-0.865 0.08008,-1.60617 0.08008,-2.57617c0,-1.21 -0.39469,-1.67828 -1.17969,-1.86328v-0.08008c0.79,-0.185 1.17969,-0.65523 1.17969,-1.86523c0,-0.945 -0.08008,-1.71117 -0.08008,-2.57617c0,-0.865 0.18523,-1.10352 0.86523,-1.10352h0.70508v7.54102c0,1.605 0.5493,2.6543 2.1543,2.6543c0.5,0 0.89469,-0.08055 1.17969,-0.18555l-0.26367,-1.70898c-0.155,0.041 -0.23055,0.04102 -0.31055,0.04102c-0.185,0 -0.41992,-0.16125 -0.41992,-0.65625v-8.91211zM27.74414,9.15625v1.21094h0.31641c0.71,0 0.86523,0.23547 0.86523,1.10547c0,0.815 -0.08008,1.62922 -0.08008,2.57422c0,1.21 0.39469,1.68023 1.17969,1.86523v0.08008c-0.79,0.185 -1.17969,0.65523 -1.17969,1.86523c0,0.945 0.08008,1.70922 0.08008,2.57422c0,0.895 -0.18523,1.13086 -0.86523,1.13086v0.02539h-0.31641v1.25977h1.02539c1.39,0 2.02539,-0.54977 2.02539,-2.25977c0,-1.13 -0.16016,-1.71047 -0.16016,-2.73047c0,-0.55 0.34023,-1.12969 1.36523,-1.17969v-1.36523c-1.025,-0.035 -1.36523,-0.61602 -1.36523,-1.16602c0,-1.025 0.16016,-1.62851 0.16016,-2.72851c0,-1.71 -0.63039,-2.26172 -2.02539,-2.26172zM11.24219,12.30664c-1.92,0 -3.75703,1.60595 -3.70703,4.12695c0,2.6 1.7108,4.125 3.9668,4.125c0.945,0 1.99555,-0.33953 2.81055,-0.89453l-0.79102,-1.39062c-0.58,0.34 -1.12898,0.5 -1.70898,0.5c-1.05,0 -1.86617,-0.49898 -2.07617,-1.70898h4.76172c0.025,-0.185 0.08008,-0.5507 0.08008,-0.9707c0.029,-2.132 -1.13094,-3.78711 -3.33594,-3.78711zM18.30859,12.33203c-1.785,0 -2.99609,1.0257 -2.99609,2.4707c0,1.285 1.13117,1.94359 2.07617,2.30859c0.815,0.315 1.60352,0.58047 1.60352,1.10547c0,0.395 -0.31344,0.6543 -1.02344,0.6543c-0.655,0 -1.31539,-0.26445 -2.02539,-0.81445l-1.02539,1.52539c0.79,0.655 1.99414,1.10547 2.99414,1.10547c2.1,0 3.23242,-1.10578 3.23242,-2.55078c0.004,-1.444 -1.12734,-2.04962 -2.15234,-2.39062c-0.815,-0.315 -1.54883,-0.49844 -1.54883,-1.02344c0,-0.395 0.31453,-0.63086 0.89453,-0.63086c0.58,0 1.10469,0.2343 1.67969,0.6543l1.05078,-1.38867c-0.655,-0.5 -1.54977,-1.02539 -2.75977,-1.02539zM24.69336,12.33203c-1.785,0 -2.99414,1.0257 -2.99414,2.4707c0,1.285 1.12922,1.94359 2.07422,2.30859c0.815,0.315 1.60547,0.58047 1.60547,1.10547c0,0.395 -0.31539,0.6543 -1.02539,0.6543c-0.655,0 -1.31539,-0.26445 -2.02539,-0.81445l-1.04883,1.52539c0.79,0.655 1.99414,1.10547 2.99414,1.10547c2.1,0 3.23242,-1.10578 3.23242,-2.55078c0,-1.445 -1.12734,-2.04962 -2.15234,-2.39062c-0.79,-0.315 -1.52539,-0.49844 -1.52539,-1.02344c0,-0.395 0.31648,-0.63086 0.89648,-0.63086c0.58,0 1.10469,0.2343 1.67969,0.6543l1.04883,-1.38867c-0.655,-0.5 -1.54977,-1.02539 -2.75977,-1.02539zM11.26758,14.06641c0.945,0 1.31445,0.65578 1.31445,1.55078h-2.83984c0.16,-1.05 0.79039,-1.55078 1.52539,-1.55078z"></path></g></g></svg>