<svg xmlns="http://www.w3.org/2000/svg" viewBox="0 0 256 256" width="50" height="50"><path d="M128 20.48c2.9 0 5.62 1.12 7.66 3.18l96.68 96.68c4.24 4.22 4.24 11.1 0 15.32l-96.68 96.68c-2.04 2.06-4.76 3.18-7.66 3.18-2.9 0-5.62-1.12-7.66-3.18l-96.68-96.68c-4.24-4.22-4.24-11.1 0-15.32l63.08-63.08L98.38 68.9c-2.8 10.4.02 21.74 7.9 29.62 1.88 1.88 4.02 3.5 6.36 4.84v49.3c-9.32 5.38-15.36 15.4-15.36 26.54 0 16.94 13.78 30.72 30.72 30.72 16.94 0 30.72-13.78 30.72-30.72 0-11.14-6.04-21.16-15.36-26.54v-38.78l6.22 6.22c-2.8 10.4.02 21.74 7.9 29.62 5.8 5.8 13.52 9 21.72 9s15.92-3.2 21.72-9c11.98-11.98 11.98-31.46 0-43.44-5.78-5.78-13.44-8.96-21.62-8.96-2.7 0-5.4.36-8 1.06L157.62 84.7c2.8-10.4-.02-21.74-7.9-29.62-5.78-5.78-13.44-8.96-21.62-8.96-2.7 0-5.4.36-8 1.06l-11.64-11.64 11.88-11.88c2.04-2.06 4.76-3.18 7.66-3.18m0-10.24c-5.4 0-10.8 2.06-14.9 6.18L93.98 35.54l23.66 23.66c3.22-1.88 6.84-2.84 10.46-2.84 5.2 0 10.4 1.98 14.38 5.96 6.74 6.74 7.72 16.98 3.1 24.82l23.26 23.26c3.22-1.88 6.84-2.84 10.46-2.84 5.2 0 10.4 1.98 14.38 5.96 8 8 8 20.96 0 28.96-4 4-9.24 6-14.48 6s-10.48-2-14.48-6c-6.74-6.74-7.72-16.98-3.1-24.84l-23.26-23.26c-1.66.98-3.42 1.7-5.24 2.16v62.9c8.82 2.28 15.36 10.22 15.36 19.76 0 11.32-9.16 20.48-20.48 20.48-11.3 0-20.48-9.16-20.48-20.48 0-9.54 6.54-17.48 15.36-19.76v-62.9c-3.42-.88-6.68-2.58-9.36-5.26-6.74-6.74-7.72-16.98-3.1-24.82L86.74 42.78 16.42 113.1c-8.24 8.22-8.24 21.58 0 29.8l96.68 96.68c4.1 4.12 9.5 6.18 14.9 6.18s10.8-2.06 14.9-6.18l96.68-96.68c8.24-8.22 8.24-21.58 0-29.8L142.9 16.42c-4.1-4.12-9.5-6.18-14.9-6.18z" fill="#f9f9f9" font-family="none" font-weight="none" font-size="none" text-anchor="none"/></svg>