<svg xmlns="http://www.w3.org/2000/svg" viewBox="0 0 256 256" width="50" height="50"><path d="M46.08 20.48c-14.078 0-25.6 11.522-25.6 25.6v163.84c0 14.078 11.522 25.6 25.6 25.6h163.84c14.078 0 25.6-11.522 25.6-25.6V46.08c0-14.078-11.522-25.6-25.6-25.6zm0 10.24h163.84c8.543 0 15.36 6.817 15.36 15.36v163.84c0 8.543-6.817 15.36-15.36 15.36H46.08a15.284 15.284 0 01-15.36-15.36V46.08c0-8.543 6.817-15.36 15.36-15.36zm25.6 25.66c-5.608 0-10.654 1.676-14.39 4.82-3.736 3.144-6.03 7.84-6.03 12.87 0 9.56 8.292 17.013 18.84 17.75l.02.01c.503.171 1.03.262 1.56.27 11.638 0 20.42-8.152 20.42-18.03 0-.09-.004-.18-.01-.27-.52-9.73-9.195-17.42-20.41-17.42zm0 10.12c7.128 0 9.943 3.183 10.25 7.7-.062 4.384-2.774 7.78-10.25 7.78-7.093 0-10.3-3.633-10.3-7.91 0-2.139.78-3.75 2.42-5.13s4.272-2.44 7.88-2.44zM56.32 97.28a5.12 5.12 0 00-5.12 5.12v97.28a5.12 5.12 0 005.12 5.12h30.72a5.12 5.12 0 005.12-5.12V102.4a5.12 5.12 0 00-5.12-5.12zm46.08 0a5.12 5.12 0 00-5.12 5.12v97.28a5.12 5.12 0 005.12 5.12h30.72a5.12 5.12 0 005.12-5.12v-51.2c0-4.248 1.16-8.473 3.2-11.24 2.04-2.767 4.616-4.427 9.51-4.34 5.047.087 7.719 1.816 9.74 4.53 2.021 2.714 3.15 6.783 3.15 11.05v51.2a5.12 5.12 0 005.12 5.12h30.72a5.12 5.12 0 005.12-5.12V144.7c0-15.163-4.491-27.174-12.19-35.3-7.699-8.126-18.406-12.12-29.73-12.12-10.762 0-18.952 3.609-24.64 7.29v-2.17a5.12 5.12 0 00-5.12-5.12zm-40.96 10.24h20.48v87.04H61.44zm46.08 0H128v7.99a5.12 5.12 0 009.21 3.08s8.04-11.07 25.67-11.07c8.977 0 16.675 2.983 22.3 8.92 5.625 5.937 9.38 15.084 9.38 28.26v49.86h-20.48v-46.08c0-5.973-1.431-12.15-5.17-17.17-3.739-5.02-10.027-8.517-17.78-8.65-7.793-.138-14.183 3.43-17.93 8.51s-5.2 11.318-5.2 17.31v46.08h-20.48z" fill="#f9f9f9" font-family="none" font-weight="none" font-size="none" text-anchor="none"/></svg>